<?xml version="1.0" encoding="UTF-8" standalone="no"?>
<svg width="224px" height="131px" viewBox="0 0 224 131" version="1.1" xmlns="http://www.w3.org/2000/svg" xmlns:xlink="http://www.w3.org/1999/xlink" xmlns:sketch="http://www.bohemiancoding.com/sketch/ns">
    <title>Macs freebie</title>
    <description>Created with Sketch (http://www.bohemiancoding.com/sketch)</description>
    <defs></defs>
    <g id="Page-1" stroke="none" stroke-width="1" fill="none" fill-rule="evenodd" sketch:type="MSPage">
        <g id="mac" sketch:type="MSLayerGroup" transform="translate(1.000000, -106.000000)">
            <g id="macbook" transform="translate(0.000000, 106.000000)" sketch:type="MSShapeGroup">
                <rect id="screen-body" fill="#43403D" x="17" y="0" width="186" height="121" rx="8"></rect>
                <path d="M221.88109,127.999352 L222.160748,121.909055 C222.180547,121.454407 221.729996,120.99962 221.259797,120.999481 L0.807018493,120.934184 C0.311474447,120.934038 -0.163385853,121.441115 -0.142593104,121.948339 C-0.0176253317,124.942463 0.111163566,127.936586 0.111163566,127.936586 C0.184125022,129.594338 1.55881938,130.938576 3.1870659,130.939028 L218.790473,130.998832 C220.415806,130.999283 221.800599,129.651019 221.88109,127.999352 Z" id="body" fill="#DEDEDE"></path>
                <path d="M219.367685,131 L3.20431905,131 C1.57194956,131 -0.048276243,130.104587 -0.421240235,129 L222.54809,129 C222.17261,130.10102 220.997133,131 219.367685,131 Z" id="lower-body" fill="#A8A8A8"></path>
                <rect id="screen" fill="#000" x="24" y="9" width="172" height="104"></rect>
                <path d="M110,7 C111.10457,7 112,6.10456955 112,5 C112,3.89543045 111.10457,3 110,3 C108.89543,3 108,3.89543045 108,5 C108,6.10456955 108.89543,7 110,7 Z" id="camera" fill="#9E9E9E"></path>
                <rect id="Rectangle-15" fill="#AAAAAA" x="92.5" y="121" width="37" height="3" rx="12"></rect>
            </g>
        </g>
    </g>
</svg>
