<?xml version="1.0" ?><!DOCTYPE svg  PUBLIC '-//W3C//DTD SVG 1.1//EN'  'http://www.w3.org/Graphics/SVG/1.1/DTD/svg11.dtd'><svg enable-background="new 0 0 512 512" height="512px" id="Calque_1" version="1.1" viewBox="0 0 512 512" width="512px" xml:space="preserve" xmlns="http://www.w3.org/2000/svg" xmlns:xlink="http://www.w3.org/1999/xlink"><g><circle cx="256" cy="256" fill="#25A6D1" r="256"/><g><path d="M100.849,389.629c0,11.894,9.318,21.522,20.803,21.522h268.712c11.485,0,20.788-9.629,20.788-21.522    V122.371c0-11.894-9.303-21.522-20.788-21.522H121.651c-11.484,0-20.803,9.629-20.803,21.522V389.629z" fill="#E6E7E8"/><rect fill="#FFFFFF" height="204.522" width="262.469" x="125.545" y="177.439"/><g><rect fill="#687385" height="57.704" width="91.727" x="266.955" y="207.841"/><rect fill="#687385" height="22.887" width="205.561" x="154" y="288.712"/><rect fill="#687385" height="22.886" width="92.667" x="154" y="247.788"/><rect fill="#687385" height="22.887" width="92.667" x="154" y="206.863"/><rect fill="#687385" height="22.886" width="205.561" x="154" y="329.637"/></g><ellipse cx="373.773" cy="138.651" fill="#E55C41" rx="13.606" ry="14.083"/><ellipse cx="337.803" cy="138.651" fill="#8DC63F" rx="13.606" ry="14.083"/><ellipse cx="301.848" cy="138.871" fill="#FFCA66" rx="13.606" ry="14.083"/><path d="M270.061,138.742c0,7.826-6.121,14.167-13.697,14.167H140.061c-7.561,0-13.682-6.341-13.682-14.167l0,0    c0-7.826,6.121-14.174,13.682-14.174h116.303C263.939,124.568,270.061,130.917,270.061,138.742L270.061,138.742z" fill="#FFFFFF"/></g></g><g/><g/><g/><g/><g/><g/></svg>