<?xml version="1.0" ?><!DOCTYPE svg  PUBLIC '-//W3C//DTD SVG 1.0//EN'  'http://www.w3.org/TR/2001/REC-SVG-20010904/DTD/svg10.dtd'><svg height="110px" style="enable-background:new 0 0 110 110;" version="1.0" viewBox="0 0 110 110" width="110px" xml:space="preserve" xmlns="http://www.w3.org/2000/svg" xmlns:xlink="http://www.w3.org/1999/xlink"><g id="Artboard"/><g id="Multicolor"><circle cx="55" cy="55" r="55" style="fill:#E04F5F;"/><g><rect height="48" style="fill:#F0F1F1;" width="20" x="27" y="31"/><rect height="56" style="fill:#FFFFFF;" width="36" x="47" y="23"/><rect height="4" style="fill:#21B2D1;" width="4" x="31" y="35"/><rect height="4" style="fill:#40C9E7;" width="10" x="53" y="61"/><rect height="4" style="fill:#40C9E7;" width="10" x="67" y="61"/><rect height="4" style="fill:#40C9E7;" width="10" x="53" y="53"/><rect height="4" style="fill:#40C9E7;" width="10" x="67" y="53"/><rect height="4" style="fill:#40C9E7;" width="10" x="53" y="45"/><rect height="4" style="fill:#40C9E7;" width="10" x="67" y="45"/><rect height="4" style="fill:#40C9E7;" width="10" x="53" y="37"/><rect height="4" style="fill:#40C9E7;" width="10" x="67" y="37"/><rect height="4" style="fill:#40C9E7;" width="10" x="53" y="29"/><rect height="4" style="fill:#40C9E7;" width="10" x="67" y="29"/><rect height="4" style="fill:#21B2D1;" width="4" x="39" y="35"/><rect height="4" style="fill:#21B2D1;" width="4" x="31" y="43"/><rect height="4" style="fill:#21B2D1;" width="4" x="39" y="43"/><rect height="4" style="fill:#21B2D1;" width="4" x="31" y="51"/><rect height="4" style="fill:#21B2D1;" width="4" x="39" y="51"/><rect height="4" style="fill:#21B2D1;" width="4" x="31" y="59"/><rect height="4" style="fill:#21B2D1;" width="4" x="39" y="59"/><rect height="4" style="fill:#21B2D1;" width="4" x="31" y="67"/><rect height="4" style="fill:#21B2D1;" width="4" x="39" y="67"/><rect height="8" style="fill:#5B5C5F;" width="12" x="59" y="71"/><rect height="4" style="fill:#0D9681;" width="64" x="23" y="83"/><polygon points="23,83 27,79 83,79 87,83   " style="fill:#17B198;"/><rect height="3" style="fill:#CFD3D4;" width="18" x="56" y="68"/><rect height="5" style="fill:#5B5C5F;" width="6" x="34" y="74"/></g></g></svg>