<?xml version="1.0" ?><!DOCTYPE svg  PUBLIC '-//W3C//DTD SVG 1.1//EN'  'http://www.w3.org/Graphics/SVG/1.1/DTD/svg11.dtd'><svg enable-background="new 0 0 512 512" height="512px" id="Calque_1" version="1.1" viewBox="0 0 512 512" width="512px" xml:space="preserve" xmlns="http://www.w3.org/2000/svg" xmlns:xlink="http://www.w3.org/1999/xlink"><g><circle cx="256" cy="256" fill="#DF5A47" r="256"/><g><path d="M120.833,172.818c0,5.758,4.743,10.425,10.591,10.425h249.128c5.872,0,10.614-4.667,10.614-10.425v-51.803    c0-5.758-4.742-10.425-10.614-10.425H131.424c-5.849,0-10.591,4.667-10.591,10.425V172.818z" fill="#FBB040"/><rect fill="#FFFFFF" height="227.909" width="270.334" x="120.833" y="183.243"/><polygon fill="#E5E5E5" points="100.849,393.137 411.151,393.137 391.167,293.334 120.833,293.334   "/><rect fill="#EC893B" height="53.742" width="270.334" x="120.833" y="129.667"/><path d="M224.091,251.909h-6.022l-3.159-8.136h-10.114l-3.015,8.136h-5.712l11.099-28.454h5.159L224.091,251.909z     M213.235,239.258l-3.515-9.015l-3.311,9.015H213.235z" fill="#40535C"/><path d="M251.621,223.455l-11.258,28.454h-4.984l-11.228-28.454h5.788l7.917,21.242l7.993-21.242H251.621z" fill="#40535C"/><path d="M280.091,251.909h-5.825l-2.75-7.742c-0.205-0.53-0.463-1.03-0.804-1.485    c-0.325-0.438-0.704-0.833-1.136-1.151c-0.447-0.333-0.939-0.591-1.463-0.772c-0.545-0.182-1.113-0.272-1.696-0.272h-5.804v11.424    h-5.394v-28.454h12.97c0.766,0,1.508,0.015,2.197,0.045c0.712,0.03,1.371,0.121,2.007,0.243c0.659,0.136,1.258,0.333,1.856,0.575    c0.591,0.258,1.159,0.621,1.682,1.076c0.478,0.394,0.895,0.833,1.25,1.333c0.349,0.5,0.645,1.016,0.871,1.561    c0.235,0.561,0.417,1.121,0.546,1.728c0.121,0.591,0.182,1.166,0.182,1.758c0,1.742-0.432,3.227-1.28,4.47    c-0.856,1.242-2.03,2.212-3.522,2.863c1.228,0.924,2.234,2.379,3,4.394L280.091,251.909z M260.613,235.591h7.189    c0.955,0,1.788-0.075,2.478-0.196c0.697-0.137,1.265-0.349,1.697-0.651c0.446-0.304,0.765-0.697,0.97-1.183    c0.196-0.484,0.287-1.075,0.287-1.787c0-1.258-0.379-2.183-1.182-2.773c-0.803-0.605-2.03-0.894-3.697-0.894h-7.742V235.591z" fill="#40535C"/><path d="M290.849,251.909h-5.371v-28.454h5.371V251.909z" fill="#40535C"/><path d="M315.932,251.909h-18.659v-28.454h5.387v23.561h13.272V251.909z" fill="#40535C"/><path d="M232.083,352.925h-15.447v-59.758c-4.591,1.651-10.932,2.47-19.045,2.47v-12.803    c12.735,0,20-4.728,21.818-14.152h12.674V352.925z" fill="#40535C"/><path d="M314.395,352.925h-57.713c0-6.818,1.621-12.651,4.887-17.485c1.508-2.242,3.697-4.728,6.522-7.439    c2.856-2.727,6.349-5.742,10.522-9.061c3.705-2.939,6.834-5.53,9.356-7.772c2.546-2.228,4.591-4.318,6.144-6.288    c1.561-1.954,2.667-3.879,3.326-5.788c0.666-1.894,0.984-3.984,0.984-6.257c0-3.576-1.015-6.364-3.061-8.364    c-2.045-1.984-4.962-2.984-8.742-2.984c-1.591,0-3.113,0.303-4.545,0.924c-1.447,0.606-2.713,1.53-3.818,2.758    c-1.091,1.242-2,2.772-2.758,4.621c-0.72,1.849-1.167,3.985-1.326,6.394h-15.855c0.355-4.166,1.265-7.954,2.758-11.348    c1.492-3.379,3.477-6.273,5.939-8.652c2.462-2.394,5.378-4.227,8.719-5.545c3.356-1.303,7.046-1.955,11.099-1.955    c4.356,0,8.25,0.637,11.659,1.879c3.417,1.243,6.266,2.955,8.576,5.137c2.303,2.182,4.076,4.758,5.295,7.712    c1.197,2.97,1.804,6.182,1.804,9.651c0,3.167-0.433,6.106-1.296,8.804c-0.879,2.696-2.189,5.257-3.924,7.682    c-1.637,2.242-4.084,4.909-7.364,8.03c-3.28,3.105-7.28,6.621-12.007,10.53c-2.804,2.349-5.221,4.424-7.258,6.242    c-2.016,1.803-3.523,3.258-4.508,4.379h36.584V352.925z" fill="#40535C"/><polygon fill="#10171F" opacity="0.01" points="100.849,393.137 411.151,393.137 391.167,293.334 120.833,293.334   "/><g><path d="M178.561,141.925c0,6.424-5.295,11.636-11.826,11.636c-6.545,0-11.841-5.212-11.841-11.636     c0-6.439,5.296-11.651,11.841-11.651C173.265,130.273,178.561,135.485,178.561,141.925z" fill="#AC3225" opacity="0.7"/><path d="M357.106,141.925c0,6.424-5.296,11.636-11.826,11.636c-6.545,0-11.841-5.212-11.841-11.636     c0-6.439,5.296-11.651,11.841-11.651C351.811,130.273,357.106,135.485,357.106,141.925z" fill="#AC3225" opacity="0.7"/></g><g><path d="M158.992,140.137c0,4.333,3.568,7.849,7.985,7.849l0,0c4.409,0,7.977-3.516,7.977-7.849v-31.425     c0-4.348-3.568-7.863-7.977-7.863l0,0c-4.417,0-7.985,3.516-7.985,7.863V140.137z" fill="#F9ED32"/><path d="M337.03,140.137c0,4.333,3.568,7.849,7.992,7.849l0,0c4.402,0,7.97-3.516,7.97-7.849v-31.425     c0-4.348-3.567-7.863-7.97-7.863l0,0c-4.424,0-7.992,3.516-7.992,7.863V140.137z" fill="#F9ED32"/></g><g><path d="M145.228,302.47c0,3.167,2.598,5.728,5.818,5.728l0,0c3.235,0,5.833-2.561,5.833-5.728v-18.742     c0-3.167-2.599-5.728-5.833-5.728l0,0c-3.22,0-5.818,2.561-5.818,5.728V302.47z" fill="#A7A9AC"/><path d="M355.121,302.47c0,3.167,2.599,5.728,5.818,5.728l0,0c3.22,0,5.833-2.561,5.833-5.728v-18.742     c0-3.167-2.613-5.728-5.833-5.728l0,0c-3.22,0-5.818,2.561-5.818,5.728V302.47z" fill="#A7A9AC"/></g></g></g><g/><g/><g/><g/><g/><g/></svg>