<?xml version="1.0" encoding="UTF-8" standalone="no"?>
<svg width="512px" height="512px" viewBox="0 0 512 512" version="1.1" xmlns="http://www.w3.org/2000/svg" xmlns:xlink="http://www.w3.org/1999/xlink" xmlns:sketch="http://www.bohemiancoding.com/sketch/ns">
    <title>Untitled 2</title>
    <description>Created with Sketch (http://www.bohemiancoding.com/sketch)</description>
    <defs></defs>
    <g id="Page-1" stroke="none" stroke-width="1" fill="none" fill-rule="evenodd" sketch:type="MSPage">
        <g id="calendar" sketch:type="MSLayerGroup">
            <g id="Group" sketch:type="MSShapeGroup">
                <circle id="Oval" fill="#DF5A47" cx="256" cy="256" r="256"></circle>
                <g transform="translate(101.000000, 101.000000)">
                    <path d="M19.833,71.818 C19.833,77.576 24.576,82.243 30.424,82.243 L279.552,82.243 C285.424,82.243 290.166,77.576 290.166,71.818 L290.166,20.015 C290.166,14.257 285.424,9.59 279.552,9.59 L30.424,9.59 C24.575,9.59 19.833,14.257 19.833,20.015 L19.833,71.818 L19.833,71.818 Z" id="Shape" fill="#FBB040"></path>
                    <rect id="Rectangle" fill="#FFFFFF" x="20" y="82" width="270.334" height="227.909"></rect>
                    <path d="M-0.151,292.137 L310.151,292.137 L290.167,192.334 L19.833,192.334 L-0.151,292.137 Z" id="Shape" fill="#E5E5E5"></path>
                    <rect id="Rectangle" fill="#EC893B" x="20" y="29" width="270.334" height="53.742"></rect>
                    <path d="M123.091,150.909 L117.069,150.909 L113.91,142.773 L103.796,142.773 L100.781,150.909 L95.069,150.909 L106.168,122.455 L111.327,122.455 L123.091,150.909 L123.091,150.909 Z M112.235,138.258 L108.72,129.243 L105.409,138.258 L112.235,138.258 L112.235,138.258 Z" id="Shape" fill="#40535C"></path>
                    <path d="M179.091,150.909 L173.266,150.909 L170.516,143.167 C170.311,142.637 170.053,142.137 169.712,141.682 C169.387,141.244 169.008,140.849 168.576,140.531 C168.129,140.198 167.637,139.94 167.113,139.759 C166.568,139.577 166,139.487 165.417,139.487 L159.613,139.487 L159.613,150.911 L154.219,150.911 L154.219,122.457 L167.189,122.457 C167.955,122.457 168.697,122.472 169.386,122.502 C170.098,122.532 170.757,122.623 171.393,122.745 C172.052,122.881 172.651,123.078 173.249,123.32 C173.84,123.578 174.408,123.941 174.931,124.396 C175.409,124.79 175.826,125.229 176.181,125.729 C176.53,126.229 176.826,126.745 177.052,127.29 C177.287,127.851 177.469,128.411 177.598,129.018 C177.719,129.609 177.78,130.184 177.78,130.776 C177.78,132.518 177.348,134.003 176.5,135.246 C175.644,136.488 174.47,137.458 172.978,138.109 C174.206,139.033 175.212,140.488 175.978,142.503 L179.091,150.909 L179.091,150.909 Z M159.613,134.591 L166.802,134.591 C167.757,134.591 168.59,134.516 169.28,134.395 C169.977,134.258 170.545,134.046 170.977,133.744 C171.423,133.44 171.742,133.047 171.947,132.561 C172.143,132.077 172.234,131.486 172.234,130.774 C172.234,129.516 171.855,128.591 171.052,128.001 C170.249,127.396 169.022,127.107 167.355,127.107 L159.613,127.107 L159.613,134.591 L159.613,134.591 Z" id="Shape" fill="#40535C"></path>
                    <path d="M143.700807,138.682494 C140.968406,139.654464 137.465798,139.487 137.158,139.487 L131.354,139.487 L131.354,150.911 L125.96,150.911 L125.96,122.457 L138.93,122.457 C139.696,122.457 140.438,122.472 141.127,122.502 C141.839,122.532 142.498,122.623 143.134,122.745 C143.793,122.881 144.392,123.078 144.99,123.32 C145.581,123.578 146.149,123.941 146.672,124.396 C147.15,124.79 147.567,125.229 147.922,125.729 C148.271,126.229 148.567,126.745 148.793,127.29 C149.028,127.851 149.21,128.411 149.339,129.018 C149.46,129.609 149.521,130.184 149.521,130.776 C149.521,132.518 149.089,134.003 148.241,135.246 C147.83693,135.832279 146.143838,137.813459 143.700807,138.682494 Z M131.354,134.591 L138.543,134.591 C139.498,134.591 140.331,134.516 141.021,134.395 C141.718,134.258 142.286,134.046 142.718,133.744 C143.164,133.44 143.483,133.047 143.688,132.561 C143.884,132.077 143.975,131.486 143.975,130.774 C143.975,129.516 143.596,128.591 142.793,128.001 C141.99,127.396 140.763,127.107 139.096,127.107 L131.354,127.107 L131.354,134.591 L131.354,134.591 Z" id="Shape" fill="#40535C"></path>
                    <path d="M189.849,150.909 L184.478,150.909 L184.478,122.455 L189.849,122.455 L189.849,150.909 L189.849,150.909 Z" id="Shape" fill="#40535C"></path>
                    <path d="M214.932,150.909 L196.273,150.909 L196.273,122.455 L201.66,122.455 L201.66,146.016 L214.932,146.016 L214.932,150.909 L214.932,150.909 Z" id="Shape" fill="#40535C"></path>
                    <path d="M131.083,251.925 L115.636,251.925 L115.636,192.167 C111.045,193.818 104.704,194.637 96.591,194.637 L96.591,181.834 C109.326,181.834 116.591,177.106 118.409,167.682 L131.083,167.682 L131.083,251.925 L131.083,251.925 Z" id="Shape" fill="#40535C"></path>
                    <path d="M213.395,251.925 L155.682,251.925 C155.682,245.107 157.303,239.274 160.569,234.44 C162.077,232.198 164.266,229.712 167.091,227.001 C169.947,224.274 173.44,221.259 177.613,217.94 C181.318,215.001 184.447,212.41 186.969,210.168 C189.515,207.94 191.56,205.85 193.113,203.88 C194.674,201.926 195.78,200.001 196.439,198.092 C197.105,196.198 197.423,194.108 197.423,191.835 C197.423,188.259 196.408,185.471 194.362,183.471 C192.317,181.487 189.4,180.487 185.62,180.487 C184.029,180.487 182.507,180.79 181.075,181.411 C179.628,182.017 178.362,182.941 177.257,184.169 C176.166,185.411 175.257,186.941 174.499,188.79 C173.779,190.639 173.332,192.775 173.173,195.184 L157.318,195.184 C157.673,191.018 158.583,187.23 160.076,183.836 C161.568,180.457 163.553,177.563 166.015,175.184 C168.477,172.79 171.393,170.957 174.734,169.639 C178.09,168.336 181.78,167.684 185.833,167.684 C190.189,167.684 194.083,168.321 197.492,169.563 C200.909,170.806 203.758,172.518 206.068,174.7 C208.371,176.882 210.144,179.458 211.363,182.412 C212.56,185.382 213.167,188.594 213.167,192.063 C213.167,195.23 212.734,198.169 211.871,200.867 C210.992,203.563 209.682,206.124 207.947,208.549 C206.31,210.791 203.863,213.458 200.583,216.579 C197.303,219.684 193.303,223.2 188.576,227.109 C185.772,229.458 183.355,231.533 181.318,233.351 C179.302,235.154 177.795,236.609 176.81,237.73 L213.394,237.73 L213.394,251.925 L213.395,251.925 Z" id="Shape" fill="#40535C"></path>
                    <path d="M-0.151,292.137 L310.151,292.137 L290.167,192.334 L19.833,192.334 L-0.151,292.137 Z" id="Shape" opacity="0.01" fill="#10171F"></path>
                    <g transform="translate(54.000000, 29.000000)" id="Shape" fill="#AC3225" opacity="0.7">
                        <path d="M23.561,11.925 C23.561,18.349 18.266,23.561 11.735,23.561 C5.19,23.561 -0.106,18.349 -0.106,11.925 C-0.106,5.486 5.19,0.274 11.735,0.274 C18.265,0.273 23.561,5.485 23.561,11.925 L23.561,11.925 Z"></path>
                        <path d="M202.106,11.925 C202.106,18.349 196.81,23.561 190.28,23.561 C183.735,23.561 178.439,18.349 178.439,11.925 C178.439,5.486 183.735,0.274 190.28,0.274 C196.811,0.273 202.106,5.485 202.106,11.925 L202.106,11.925 Z"></path>
                    </g>
                    <g transform="translate(58.000000, 0.000000)" id="Shape" fill="#F9ED32">
                        <path d="M-0.008,39.137 C-0.008,43.47 3.56,46.986 7.977,46.986 L7.977,46.986 C12.386,46.986 15.954,43.47 15.954,39.137 L15.954,7.712 C15.954,3.364 12.386,-0.151 7.977,-0.151 L7.977,-0.151 C3.56,-0.151 -0.008,3.365 -0.008,7.712 L-0.008,39.137 L-0.008,39.137 Z"></path>
                        <path d="M178.03,39.137 C178.03,43.47 181.598,46.986 186.022,46.986 L186.022,46.986 C190.424,46.986 193.992,43.47 193.992,39.137 L193.992,7.712 C193.992,3.364 190.425,-0.151 186.022,-0.151 L186.022,-0.151 C181.598,-0.151 178.03,3.365 178.03,7.712 L178.03,39.137 L178.03,39.137 Z"></path>
                    </g>
                    <g transform="translate(44.000000, 177.000000)" id="Shape" fill="#A7A9AC">
                        <path d="M0.228,24.47 C0.228,27.637 2.826,30.198 6.046,30.198 L6.046,30.198 C9.281,30.198 11.879,27.637 11.879,24.47 L11.879,5.728 C11.879,2.561 9.28,0 6.046,0 L6.046,0 C2.826,0 0.228,2.561 0.228,5.728 L0.228,24.47 L0.228,24.47 Z"></path>
                        <path d="M210.121,24.47 C210.121,27.637 212.72,30.198 215.939,30.198 L215.939,30.198 C219.159,30.198 221.772,27.637 221.772,24.47 L221.772,5.728 C221.772,2.561 219.159,0 215.939,0 L215.939,0 C212.719,0 210.121,2.561 210.121,5.728 L210.121,24.47 L210.121,24.47 Z"></path>
                    </g>
                </g>
            </g>
        </g>
    </g>
</svg>