<?xml version="1.0" ?><!DOCTYPE svg  PUBLIC '-//W3C//DTD SVG 1.1//EN'  'http://www.w3.org/Graphics/SVG/1.1/DTD/svg11.dtd'><svg enable-background="new 0 0 512 512" height="512px" id="Calque_1" version="1.1" viewBox="0 0 512 512" width="512px" xml:space="preserve" xmlns="http://www.w3.org/2000/svg" xmlns:xlink="http://www.w3.org/1999/xlink"><path d="M511.988,255.985C511.988,397.4,397.389,512,255.996,512C114.61,512,0.011,397.4,0.011,255.985  C0.011,114.6,114.61,0,255.996,0C397.389,0,511.988,114.6,511.988,255.985z" fill="#27A9E1"/><path d="M339.453,206.261c-6.605,0-12.908,1-18.969,2.682c-10.605,3.909-41.543,18.029-43.967,50.739  c0,0-3.242-43.301,33.393-66.966c-12.97-18.332-34.181-30.407-58.331-30.407c-28.21,0-52.512,16.317-64.239,39.982  c-4.484-2.091-9.454-3.348-14.726-3.348c-19.423,0-35.119,15.726-35.119,35.134c0,3.909,0.788,7.605,1.939,11.12  c-22.332,6.682-38.573,27.014-38.573,51.073c0,29.498,24.453,53.421,54.572,53.421h166.021c2.879,0,5.696-0.288,8.454-0.712  c3.121,0.409,6.272,0.712,9.545,0.712c39.573,0,71.693-32.119,71.693-71.723C411.146,238.365,379.026,206.261,339.453,206.261z" fill="#FFFFFF"/><g/><g/><g/><g/><g/><g/></svg>