<?xml version="1.0" ?><!DOCTYPE svg  PUBLIC '-//W3C//DTD SVG 1.1//EN'  'http://www.w3.org/Graphics/SVG/1.1/DTD/svg11.dtd'><svg enable-background="new 0 0 512 512" id="Layer_1" version="1.1" viewBox="0 0 512 512" xml:space="preserve" xmlns="http://www.w3.org/2000/svg" xmlns:xlink="http://www.w3.org/1999/xlink"><g><path d="M512,256c0,141.4-114.6,256-256,256S0,397.4,0,256C0,114.6,114.6,0,256,0S512,114.6,512,256z" fill="#EDF0F1"/><g><g><path d="M395.6,382.5c0,5.6-4.6,10.1-10.3,10.1h-59.4c-5.7,0-10.3-4.5-10.3-10.1V129.4c0-5.6,4.6-10.1,10.3-10.1     h59.4c5.7,0,10.3,4.5,10.3,10.1V382.5z" fill="#4E688A"/><g><defs><path d="M395.6,382.5c0,5.6-4.6,10.1-10.3,10.1h-59.4c-5.7,0-10.3-4.5-10.3-10.1V129.4c0-5.6,4.6-10.1,10.3-10.1       h59.4c5.7,0,10.3,4.5,10.3,10.1V382.5z" id="SVGID_3_"/></defs><clipPath id="SVGID_2_"><use overflow="visible" xlink:href="#SVGID_3_"/></clipPath><rect clip-path="url(#SVGID_2_)" fill="#27AAE1" height="152.9" width="81.8" x="314.7" y="137.4"/></g><path d="M327.1,382.5V129.4c0-5.6,4.6-10.1,10.3-10.1h-11.4c-5.7,0-10.3,4.5-10.3,10.1v253.1     c0,5.6,4.6,10.1,10.3,10.1h11.4C331.7,392.6,327.1,388.1,327.1,382.5z" fill="#0F2947" opacity="0.17"/><rect fill="#0F2947" height="14.5" width="29.1" x="341.1" y="150.7"/><rect fill="#FFFFFF" height="7.9" width="29.1" x="341.1" y="184.3"/><rect fill="#FFFFFF" height="7.9" width="29.1" x="341.1" y="201.2"/><rect fill="#FFFFFF" height="7.9" width="29.1" x="341.1" y="218"/><g><path d="M379.9,339.2c0,13.2-10.9,23.8-24.3,23.8c-13.4,0-24.3-10.6-24.3-23.8c0-13.1,10.9-23.8,24.3-23.8      C369.1,315.4,379.9,326.1,379.9,339.2z" fill="#0F2947"/><path d="M355.7,323.8c8.8,0,15.9,6.9,15.9,15.4c0,8.5-7.1,15.4-15.9,15.4c-8.8,0-15.9-6.9-15.9-15.4      C339.8,330.7,346.9,323.8,355.7,323.8 M355.7,315.4c-13.4,0-24.3,10.6-24.3,23.8c0,13.2,10.9,23.8,24.3,23.8      c13.4,0,24.3-10.6,24.3-23.8C379.9,326.1,369.1,315.4,355.7,315.4L355.7,315.4z" fill="#FFFFFF"/></g></g><g><path d="M315.7,382.5c0,5.6-4.6,10.1-10.3,10.1H246c-5.7,0-10.3-4.5-10.3-10.1V129.4c0-5.6,4.6-10.1,10.3-10.1     h59.4c5.7,0,10.3,4.5,10.3,10.1V382.5z" fill="#4E688A"/><g><defs><path d="M315.7,382.5c0,5.6-4.6,10.1-10.3,10.1H246c-5.7,0-10.3-4.5-10.3-10.1V129.4c0-5.6,4.6-10.1,10.3-10.1       h59.4c5.7,0,10.3,4.5,10.3,10.1V382.5z" id="SVGID_5_"/></defs><clipPath id="SVGID_4_"><use overflow="visible" xlink:href="#SVGID_5_"/></clipPath><rect clip-path="url(#SVGID_4_)" fill="#6BC6B5" height="152.9" width="81.8" x="234.8" y="137.4"/></g><path d="M247.1,382.5V129.4c0-5.6,4.6-10.1,10.3-10.1H246c-5.7,0-10.3,4.5-10.3,10.1v253.1     c0,5.6,4.6,10.1,10.3,10.1h11.4C251.7,392.6,247.1,388.1,247.1,382.5z" fill="#0F2947" opacity="0.17"/><rect fill="#0F2947" height="14.5" width="29.1" x="261.1" y="150.7"/><rect fill="#FFFFFF" height="7.9" width="29.1" x="261.1" y="184.3"/><rect fill="#FFFFFF" height="7.9" width="29.1" x="261.1" y="201.2"/><rect fill="#FFFFFF" height="7.9" width="29.1" x="261.1" y="218"/><g><path d="M299.9,339.2c0,13.2-10.9,23.8-24.3,23.8c-13.4,0-24.3-10.6-24.3-23.8c0-13.1,10.9-23.8,24.3-23.8      C289.1,315.4,299.9,326.1,299.9,339.2z" fill="#0F2947"/><path d="M275.7,323.8c8.8,0,15.9,6.9,15.9,15.4c0,8.5-7.1,15.4-15.9,15.4c-8.8,0-15.9-6.9-15.9-15.4      C259.8,330.7,266.9,323.8,275.7,323.8 M275.7,315.4c-13.4,0-24.3,10.6-24.3,23.8c0,13.2,10.9,23.8,24.3,23.8      c13.4,0,24.3-10.6,24.3-23.8C299.9,326.1,289.1,315.4,275.7,315.4L275.7,315.4z" fill="#FFFFFF"/></g></g><g><path d="M195.5,387.1c-0.9,5.5-6.2,9.2-11.8,8.4l-58.7-9.1c-5.6-0.9-9.4-6-8.5-11.5l40.4-250     c0.9-5.5,6.2-9.3,11.8-8.4l58.6,9.1c5.6,0.9,9.4,6,8.5,11.5L195.5,387.1z" fill="#4E688A"/><g><defs><path d="M195.5,387.1c-0.9,5.5-6.2,9.2-11.8,8.4l-58.7-9.1c-5.6-0.9-9.4-6-8.5-11.5l40.4-250       c0.9-5.5,6.2-9.3,11.8-8.4l58.6,9.1c5.6,0.9,9.4,6,8.5,11.5L195.5,387.1z" id="SVGID_7_"/></defs><clipPath id="SVGID_6_"><use overflow="visible" xlink:href="#SVGID_7_"/></clipPath><polygon clip-path="url(#SVGID_6_)" fill="#F4B559" points="211.1,296.2 130.3,283.7 154.7,132.6 235.5,145.1     "/></g><path d="M127.8,376.6l40.4-250c0.9-5.5,6.1-9.3,11.8-8.4l-11.3-1.8c-5.6-0.9-10.9,2.9-11.8,8.4     l-40.4,250c-0.9,5.5,2.9,10.7,8.5,11.5l11.3,1.8C130.7,387.3,126.9,382.1,127.8,376.6z" fill="#0F2947" opacity="0.17"/><polygon fill="#0F2947" points="176.3,164.2 205,168.6 207.3,154.3 178.6,149.8    "/><polygon fill="#FFFFFF" points="172,190.8 200.7,195.2 202,187.5 173.2,183    "/><polygon fill="#FFFFFF" points="169.3,207.4 198,211.8 199.3,204.1 170.5,199.6    "/><polygon fill="#FFFFFF" points="166.6,224 195.4,228.4 196.6,220.7 167.9,216.2    "/><g><path d="M186.8,341.9c-2.1,13-14.5,21.8-27.8,19.8c-13.2-2.1-22.3-14.2-20.2-27.2c2.1-13,14.5-21.8,27.8-19.8      C179.9,316.7,188.9,328.9,186.8,341.9z" fill="#0F2947"/><path d="M162.9,322.7L162.9,322.7c0.8,0,1.7,0.1,2.5,0.2c4.3,0.7,8,2.9,10.5,6.3c2.4,3.3,3.4,7.3,2.7,11.3      c-1.2,7.4-7.9,13-15.7,13c-0.8,0-1.7-0.1-2.5-0.2c-4.3-0.7-8-2.9-10.5-6.3c-2.4-3.3-3.4-7.3-2.7-11.3      C148.4,328.4,155.1,322.7,162.9,322.7 M162.9,314.4c-11.7,0-22,8.4-23.9,20.1c-2.1,13,6.9,25.2,20.2,27.2      c1.3,0.2,2.6,0.3,3.8,0.3c11.7,0,22-8.4,23.9-20.1c2.1-13-6.9-25.2-20.2-27.2C165.4,314.5,164.1,314.4,162.9,314.4L162.9,314.4z      " fill="#FFFFFF"/></g></g></g></g></svg>