<?xml version="1.0" ?><!DOCTYPE svg  PUBLIC '-//W3C//DTD SVG 1.1//EN'  'http://www.w3.org/Graphics/SVG/1.1/DTD/svg11.dtd'><svg enable-background="new 0 0 512 512" height="512px" id="Calque_1" version="1.1" viewBox="0 0 512 512" width="512px" xml:space="preserve" xmlns="http://www.w3.org/2000/svg" xmlns:xlink="http://www.w3.org/1999/xlink"><path d="M511.992,255.992C511.992,397.389,397.396,512,255.984,512C114.604,512,0.008,397.389,0.008,255.992  C0.008,114.61,114.604,0,255.984,0C397.396,0,511.992,114.61,511.992,255.992z" fill="#79B3D4"/><g><g><path clip-rule="evenodd" d="M345.25,176.697c0,0-11.575,76.493,22.028,136.746    c0,0-6.939,25.497-64.903,17.392c-57.935-8.12-34.755,4.621-34.755,4.621l8.09-161.077" fill="#334D5D" fill-rule="evenodd"/><path clip-rule="evenodd" d="M166.75,176.697c0,0,11.575,76.493-22.028,136.746    c0,0,6.939,25.497,64.903,17.392c57.935-8.12,34.755,4.621,34.755,4.621l-8.09-161.077" fill="#334D5D" fill-rule="evenodd"/></g><path clip-rule="evenodd" d="M395.548,343.092c-18.544-71.069-138.503-69.04-138.503-69.04   h-2.091c0,0-119.959-2.029-138.502,69.04c-14.787,56.737,88.447,66.236,130.776,67.752l-0.03,0.272c0,0,3.303,0.061,8.787-0.03   c5.515,0.091,8.817,0.03,8.817,0.03l-0.03-0.272C307.102,409.328,410.335,399.829,395.548,343.092z" fill="#FDDB52" fill-rule="evenodd"/><path clip-rule="evenodd" d="M337.129,197.544c0,50.556-36.33,91.553-81.114,91.553   c-44.813,0-81.144-40.997-81.144-91.553s36.33-91.553,81.144-91.553C300.799,105.991,337.129,146.988,337.129,197.544z" fill="#FFCA66" fill-rule="evenodd"/><g><path clip-rule="evenodd" d="M257.742,105.991c0,0-5.848,104.31,78.417,114.732    C336.159,220.724,390.003,102.507,257.742,105.991z" fill="#334D5D" fill-rule="evenodd"/><path clip-rule="evenodd" d="M264.711,126.868c0,0-8.969,61.404-76.902,70.676    C119.906,206.816,177.81,75.873,264.711,126.868z" fill="#334D5D" fill-rule="evenodd"/><path clip-rule="evenodd" d="M318.01,118.748c0,0-74.176-45.193-129.807,8.105    c-55.602,53.313,70.721,8.12,70.721,8.12" fill="#334D5D" fill-rule="evenodd"/></g><g><path clip-rule="evenodd" d="M230.351,220.3c0,5.029-4.091,9.12-9.12,9.12    c-5.061,0-9.151-4.091-9.151-9.12c0-5.045,4.09-9.136,9.151-9.136C226.26,211.164,230.351,215.255,230.351,220.3z" fill="#AF7D2F" fill-rule="evenodd"/><path clip-rule="evenodd" d="M299.92,220.3c0,5.029-4.09,9.12-9.12,9.12    c-5.061,0-9.12-4.091-9.12-9.12c0-5.045,4.06-9.136,9.12-9.136C295.83,211.164,299.92,215.255,299.92,220.3z" fill="#AF7D2F" fill-rule="evenodd"/></g><path d="M256.167,261.75c-6.909,0-14.878-2.091-23.15-8.423c-1.515-1.167-1.788-3.349-0.636-4.863   c1.182-1.545,3.363-1.818,4.878-0.651c19.848,15.195,36.634,1.288,37.36,0.682c1.455-1.228,3.667-1.061,4.909,0.394   c1.242,1.47,1.061,3.667-0.395,4.909C278.982,253.918,269.529,261.75,256.167,261.75z" fill="#AF7D2F"/></g><g/><g/><g/><g/><g/><g/></svg>