<?xml version="1.0" ?><!DOCTYPE svg  PUBLIC '-//W3C//DTD SVG 1.1//EN'  'http://www.w3.org/Graphics/SVG/1.1/DTD/svg11.dtd'><svg enable-background="new 0 0 512 512" height="512px" id="Calque_1" version="1.1" viewBox="0 0 512 512" width="512px" xml:space="preserve" xmlns="http://www.w3.org/2000/svg" xmlns:xlink="http://www.w3.org/1999/xlink"><path d="M511.984,255.985C511.984,397.4,397.37,512,256,512S0.015,397.4,0.015,255.985C0.015,114.6,114.63,0,256,0  S511.984,114.6,511.984,255.985z" fill="#F1F2F2"/><g><path d="M366.963,195.678l-55.239,55.239l-50.618-50.633l55.225-55.239L366.963,195.678 M411.143,195.678   l-94.813-94.813l-99.419,99.418l94.813,94.805L411.143,195.678L411.143,195.678z" fill="#E55C41"/><path d="M250.909,311.724l-55.224,55.239l-50.634-50.633l55.225-55.232L250.909,311.724 M295.104,311.724   l-94.827-94.82l-99.419,99.426l94.828,94.813L295.104,311.724L295.104,311.724z" fill="#E55C41"/><polygon fill="#BE3F27" points="222.457,239.084 200.352,261.174 250.909,311.724 242.895,319.754 243.198,320.026    273.302,289.938  "/><polygon fill="#BE3F27" points="311.724,250.917 261.182,200.359 239.092,222.449 289.938,273.302 321.451,241.796    321.147,241.493  "/><path d="M191.11,320.905c-6.106-6.091-6.106-15.999,0-22.09l107.706-107.698c6.091-6.121,15.984-6.121,22.09,0   c6.091,6.091,6.105,15.984,0,22.09L213.199,320.905C207.094,326.996,197.2,326.996,191.11,320.905z" fill="#FFC60A"/></g><g/><g/><g/><g/><g/><g/></svg>