<?xml version="1.0" ?><!DOCTYPE svg  PUBLIC '-//W3C//DTD SVG 1.1//EN'  'http://www.w3.org/Graphics/SVG/1.1/DTD/svg11.dtd'><svg enable-background="new 0 0 512 512" height="512px" id="Calque_1" version="1.1" viewBox="0 0 512 512" width="512px" xml:space="preserve" xmlns="http://www.w3.org/2000/svg" xmlns:xlink="http://www.w3.org/1999/xlink"><path d="M511.981,255.981C511.981,397.402,397.384,512,256,512C114.632,512,0.019,397.402,0.019,255.981  C0.019,114.605,114.632,0,256,0C397.384,0,511.981,114.605,511.981,255.981z" fill="#FCC369"/><g><g><path d="M159.719,390.407c0,3.605,2.788,6.529,6.272,6.529h190.365c3.469,0,6.272-2.924,6.272-6.529V133.819    c0-3.598-2.804-6.537-6.272-6.537H165.991c-3.484,0-6.272,2.939-6.272,6.537V390.407z" fill="#FFFFFF"/><path d="M344.069,141.971v240.271H167.931V141.971H344.069 M365.734,113.063H146.266c-4,0-7.242,3.242-7.242,7.227    v283.631c0,4,3.242,7.227,7.242,7.227h219.469c4,0,7.242-3.227,7.242-7.227V120.29    C372.977,116.306,369.734,113.063,365.734,113.063L365.734,113.063z" fill="#C49A6C"/></g><rect fill="#D1D3D4" height="10.075" width="105.689" x="202.686" y="140.759"/><polygon fill="#E6E7E8" points="286.983,122.775 279.802,100.853 231.26,100.853 224.078,122.775 202.686,122.775 202.686,142.592    308.375,142.592 308.375,122.775  "/><g><rect fill="#A8BEC6" height="28.316" width="28.301" x="190.051" y="172.029"/><rect fill="#FBAD3E" height="28.301" width="28.301" x="190.051" y="222.662"/><rect fill="#A8BEC6" height="28.301" width="28.301" x="190.051" y="273.279"/><rect fill="#A8BEC6" height="28.316" width="28.301" x="190.051" y="323.881"/><rect fill="#A8BEC6" height="28.316" width="88.509" x="233.441" y="172.029"/><rect fill="#FBAD3E" height="28.301" width="88.509" x="233.441" y="222.662"/><rect fill="#A8BEC6" height="28.301" width="88.509" x="233.441" y="273.279"/><rect fill="#A8BEC6" height="28.316" width="88.509" x="233.441" y="323.881"/></g></g><g/><g/><g/><g/><g/><g/></svg>