<?xml version="1.0" ?><!DOCTYPE svg  PUBLIC '-//W3C//DTD SVG 1.1//EN'  'http://www.w3.org/Graphics/SVG/1.1/DTD/svg11.dtd'><svg enable-background="new 0 0 512 512" height="512px" id="Calque_1" version="1.1" viewBox="0 0 512 512" width="512px" xml:space="preserve" xmlns="http://www.w3.org/2000/svg" xmlns:xlink="http://www.w3.org/1999/xlink"><g><circle cx="256" cy="256" fill="#E2574C" r="256"/><g><polygon fill="#EFC84A" points="297.424,324.311 325.804,295.591 299.545,269.03 271.167,297.75   "/><path d="M111.833,218.463c0,58.833,47.121,106.522,105.243,106.522c58.136,0,105.257-47.689,105.257-106.522    c0-58.811-47.121-106.5-105.257-106.5C158.955,111.963,111.833,159.652,111.833,218.463z" fill="#308ECD"/><path d="M231.728,314.804l37.515-2.796l37.53-50.932l14.637-63.909l-21.97-50.932l-66.803-32.689    c-49.834,8.401-87.849,52.113-87.849,104.917c0,54.416,40.333,99.204,92.379,105.644L231.728,314.804z" fill="#27A9E1"/><path d="M183.212,117.516c0,0,119.076,68.538,98.122,180.605l41.908-74.091l-18.742-56.5    l-46.242-51.855L183.212,117.516z" fill="#58C9EB" opacity="0.5"/><path d="M217.076,336.099c-64.091,0-116.228-52.758-116.228-117.636c0-64.842,52.136-117.614,116.228-117.614    c64.091,0,116.228,52.772,116.228,117.614C333.304,283.341,281.167,336.099,217.076,336.099z M217.076,123.084    c-51.97,0-94.258,42.787-94.258,95.379c0,52.613,42.288,95.401,94.258,95.401c51.984,0,94.272-42.788,94.272-95.401    C311.349,165.871,269.061,123.084,217.076,123.084z" fill="#FFFFFF"/><path d="M407.939,366.826c4.288,4.341,4.272,11.379,0,15.712l-25.061,25.349c-4.288,4.356-11.242,4.356-15.53,0    l-69.212-70.038c-4.303-4.341-4.303-11.379,0-15.72l25.045-25.341c4.288-4.341,11.243-4.355,15.53,0L407.939,366.826z" fill="#40535C"/><path d="M407.939,366.826c4.288,4.341,4.272,11.379,0,15.712l-25.061,25.349c-4.288,4.356-11.242,4.356-15.53,0    l-3.288-3.326c-4.288-4.34-4.288-11.363,0-15.719l25.046-25.342c4.303-4.34,11.242-4.34,15.53,0L407.939,366.826z" fill="#304047"/></g></g><g/><g/><g/><g/><g/><g/></svg>