<?xml version="1.0" ?><!DOCTYPE svg  PUBLIC '-//W3C//DTD SVG 1.1//EN'  'http://www.w3.org/Graphics/SVG/1.1/DTD/svg11.dtd'><svg enable-background="new 0 0 512 512" height="512px" id="Calque_1" version="1.1" viewBox="0 0 512 512" width="512px" xml:space="preserve" xmlns="http://www.w3.org/2000/svg" xmlns:xlink="http://www.w3.org/1999/xlink"><g><path d="M512,256c0,141.382-114.603,255.992-256.007,255.992C114.604,511.992,0,397.382,0,256   C0,114.617,114.604,0.008,255.993,0.008C397.397,0.008,512,114.617,512,256z" fill="#76BED7"/><g><path d="M184.07,178.139h-83.209v191.448l0.272,0.258c-0.061,0.833-0.242,1.606-0.242,2.439    c0,21.469,17.438,38.862,38.953,38.862c1.061,0,4.439-0.272,5.47-0.363l27.514-2.258l11.242-8V178.139z" fill="#E6E7E8"/><polygon fill="#D1D3D4" opacity="0.72" points="153.253,409.146 184.07,400.525 184.07,178.139 153.42,178.139   "/><path d="M410.776,368.891V142.079l-40.332-41.045H178.995v255.901c0,0-0.182,10.606-0.182,15.349    c0,20.408-17.439,37.181-37.484,38.786l230.66-0.227c0.258,0,0.485,0.075,0.742,0.075c21.228,0,38.424-17.166,38.424-38.332    C411.155,371.314,410.897,370.117,410.776,368.891z" fill="#F1F2F2"/><rect fill="#939598" height="32.317" width="160.268" x="214.752" y="153.412"/><rect fill="#BCBEC0" height="19.484" width="88.739" x="214.752" y="209.107"/><rect fill="#BCBEC0" height="19.469" width="88.739" x="214.752" y="251.97"/><rect fill="#BCBEC0" height="19.484" width="160.268" x="214.752" y="294.816"/><rect fill="#BCBEC0" height="19.47" width="160.268" x="214.752" y="337.679"/><rect fill="#27A9E1" height="61.816" width="52.468" x="322.794" y="209.107"/><polygon fill="#D1D3D4" points="370.444,142.079 410.67,142.079 370.444,100.853   "/></g></g><g/><g/><g/><g/><g/><g/></svg>