<?xml version="1.0" ?><!DOCTYPE svg  PUBLIC '-//W3C//DTD SVG 1.1//EN'  'http://www.w3.org/Graphics/SVG/1.1/DTD/svg11.dtd'><svg enable-background="new 0 0 512 512" id="Layer_1" version="1.1" viewBox="0 0 512 512" xml:space="preserve" xmlns="http://www.w3.org/2000/svg" xmlns:xlink="http://www.w3.org/1999/xlink"><g><path d="M512,256c0,141.4-114.6,256-256,256C114.6,512,0,397.4,0,256C0,114.6,114.6,0,256,0   C397.4,0,512,114.6,512,256z" fill="#3C5169"/><g><path d="M411.1,343.7c0,9.3-7.5,16.8-16.8,16.8H117.7c-9.3,0-16.8-7.5-16.8-16.8V168.2c0-9.3,7.5-16.8,16.8-16.8    h276.6c9.3,0,16.8,7.5,16.8,16.8V343.7z" fill="#F15E4A"/><path d="M379.1,174.7l-248.8,2.2l0.5,159.4l40.7,24.3h222.9c9.3,0,16.8-7.5,16.8-16.8V189.2L379.1,174.7z" fill="#BE4230"/><polygon fill="#E7CE3C" points="340.8,324.6 358.9,324.6 358.9,353.8 349.6,346.5 340.8,353.8   "/><path d="M128.2,331.8c0,3.1,2.5,5.6,5.6,5.6h244.3c3.1,0,5.6-2.5,5.6-5.6V180.2c0-3.1-2.5-5.6-5.6-5.6H133.9    c-3.1,0-5.6,2.5-5.6,5.6V331.8z" fill="#FFFFFF"/><path d="M378.2,174.6H256v162.9h122.1c3.1,0,5.6-2.5,5.6-5.6V180.2C383.8,177.1,381.3,174.6,378.2,174.6z" fill="#F1F2F2"/><g><rect fill="#D1D3D4" height="11.9" width="79.3" x="153.9" y="207.9"/><rect fill="#D1D3D4" height="11.9" width="79.3" x="153.9" y="236"/><rect fill="#D1D3D4" height="11.9" width="79.3" x="153.9" y="264.1"/><rect fill="#D1D3D4" height="11.9" width="51.3" x="153.9" y="292.2"/></g><g><rect fill="#D1D3D4" height="11.9" width="79.3" x="280.3" y="207.9"/><rect fill="#D1D3D4" height="11.9" width="79.3" x="280.3" y="236"/><rect fill="#D1D3D4" height="11.9" width="79.3" x="280.3" y="264.1"/><rect fill="#D1D3D4" height="11.9" width="79.3" x="280.3" y="292.2"/></g></g></g></svg>