<?xml version="1.0" ?><!DOCTYPE svg  PUBLIC '-//W3C//DTD SVG 1.1//EN'  'http://www.w3.org/Graphics/SVG/1.1/DTD/svg11.dtd'><svg enable-background="new 0 0 512 512" height="512px" id="Calque_1" version="1.1" viewBox="0 0 512 512" width="512px" xml:space="preserve" xmlns="http://www.w3.org/2000/svg" xmlns:xlink="http://www.w3.org/1999/xlink"><g><path d="M512,256c0,141.395-114.605,256-256,256C114.613,512,0,397.395,0,256C0,114.613,114.613,0,256,0   C397.395,0,512,114.613,512,256z" fill="#FED452"/><g><polygon fill="#1DA084" points="381.637,162.272 404.379,184.863 411.151,191.576 218.78,382.666 212.008,375.939     189.265,353.349 127.424,291.939 319.818,100.849   "/><polygon fill="#2AB99C" points="150.932,315.272 195.272,359.333 387.666,168.258 343.303,124.197   "/><polygon fill="#BA6E6E" points="381.637,162.272 404.379,184.863 411.151,191.576 373.045,229.439 366.258,222.712     343.516,200.121 281.667,138.712 319.818,100.849   "/><polygon fill="#D07070" points="305.197,162.045 349.545,206.106 387.666,168.258 343.303,124.197   "/><polygon fill="#E6E7E8" points="321.742,221.758 344.484,244.349 351.272,251.076 373.045,229.439 366.258,222.712     343.516,200.121 281.667,138.712 259.901,160.333   "/><polygon fill="#F1F2F2" points="305.197,162.045 349.545,206.106 327.788,227.742 283.409,183.682   "/><polygon fill="#D3C49D" points="125.015,382.061 219.038,382.395 127.697,291.667   "/><polygon fill="#E6D5AA" points="125.015,382.061 194.863,358.349 151.917,315.712   "/><g><defs><polygon id="SVGID_1_" points="153.265,411.151 100.849,359.091 126.03,334.076 178.447,386.151     "/></defs><clipPath id="SVGID_2_"><use overflow="visible" xlink:href="#SVGID_1_"/></clipPath><g clip-path="url(#SVGID_2_)"><polygon fill="#58595B" points="125.015,382.061 219.038,382.395 127.697,291.667     "/><polygon fill="#6D6E71" points="125.015,382.061 194.863,358.349 151.917,315.712     "/></g></g></g></g><g/><g/><g/><g/><g/><g/></svg>