<?xml version="1.0" ?><!DOCTYPE svg  PUBLIC '-//W3C//DTD SVG 1.1//EN'  'http://www.w3.org/Graphics/SVG/1.1/DTD/svg11.dtd'><svg enable-background="new 0 0 512 512" height="512px" id="Calque_1" version="1.1" viewBox="0 0 512 512" width="512px" xml:space="preserve" xmlns="http://www.w3.org/2000/svg" xmlns:xlink="http://www.w3.org/1999/xlink"><g><path d="M512,256c0,141.395-114.621,256-256,256S0,397.395,0,256C0,114.613,114.621,0,256,0S512,114.613,512,256z" fill="#52BDB7"/><g><path d="M345.651,400.803c0,5.713-4.621,10.349-10.333,10.349H176.697c-5.712,0-10.349-4.636-10.349-10.349    V111.197c0-5.712,4.636-10.349,10.349-10.349h158.621c5.712,0,10.333,4.636,10.333,10.349V400.803z" fill="#FFFFFF"/><rect fill="#E6E7E8" height="218.212" width="156.804" x="178.363" y="139.47"/><polygon fill="#F1F2F2" points="178.363,357.682 335.167,357.682 178.363,139.47   "/><rect fill="#BCBEC0" height="4.712" width="51.53" x="231" y="121.909"/><path d="M260,113.742c0,1.788-1.439,3.228-3.228,3.228c-1.788,0-3.242-1.439-3.242-3.228    c0-1.788,1.455-3.227,3.242-3.227C258.561,110.515,260,111.955,260,113.742z" fill="#BCBEC0"/><path d="M245.455,382.379c0,6.242,5.061,11.318,11.318,11.318c6.243,0,11.304-5.076,11.304-11.318    s-5.061-11.318-11.304-11.318C250.515,371.061,245.455,376.137,245.455,382.379z" fill="#BCBEC0"/></g></g><g/><g/><g/><g/><g/><g/></svg>