<?xml version="1.0" ?><!DOCTYPE svg  PUBLIC '-//W3C//DTD SVG 1.1//EN'  'http://www.w3.org/Graphics/SVG/1.1/DTD/svg11.dtd'><svg enable-background="new 0 0 512 512" height="512px" id="Calque_1" version="1.1" viewBox="0 0 512 512" width="512px" xml:space="preserve" xmlns="http://www.w3.org/2000/svg" xmlns:xlink="http://www.w3.org/1999/xlink"><path d="M511.985,255.985C511.985,397.4,397.378,512,256,512S0.015,397.4,0.015,255.985  C0.015,114.599,114.622,0,256,0S511.985,114.599,511.985,255.985z" fill="#E2574C"/><g><path clip-rule="evenodd" d="M120.563,171.069c-0.243-8.999,4.333-14.393,13.817-15.15   c12.878-1.03,24.483-5.727,35.482-11.727c12.515-6.863,24.423-14.772,36.968-21.56c12.817-6.924,26.028-13.105,39.148-19.469   c6.606-3.212,13.272-2.909,20.06-0.121c15.787,6.484,30.786,14.348,45.392,23.06c13.393,8.015,27.089,15.499,40.876,22.832   c8.091,4.288,16.999,6.303,26.211,7.045c7.878,0.606,13.302,6.136,12.908,13.802c-0.576,11.105-1.454,22.21-2.696,33.255   c-2.485,22.332-6.879,44.301-13.575,65.845c-11.909,38.361-30.968,72.814-60.027,101.615   c-15.483,15.317-33.059,27.983-52.148,38.725c-4.636,2.606-9.423,2.5-14.06-0.105c-35.847-20.211-64.996-47.073-86.086-81.965   c-16.362-27.09-26.786-56.3-33.391-86.904C124.533,217.552,121.897,194.568,120.563,171.069z" fill="#FDDB52" fill-rule="evenodd"/><path d="M258.146,101.104c-4.091-0.409-8.136,0.106-12.166,2.06   c-13.12,6.363-26.331,12.545-39.148,19.469c-12.545,6.788-24.453,14.696-36.968,21.56c-10.999,6-22.604,10.696-35.482,11.727   c-9.484,0.758-14.06,6.151-13.817,15.15c1.333,23.499,3.969,46.482,8.878,69.178c6.605,30.604,17.029,59.814,33.391,86.904   c21.09,34.892,50.239,61.754,86.086,81.965c3.046,1.712,6.136,2.227,9.227,1.727V101.104z" fill="#EFC541" opacity="0.5"/><path d="M256.358,131.829c12.348,5.242,25.074,11.787,38.815,19.969c14.999,8.969,29.771,16.969,42.285,23.62   c6.788,3.621,14.06,6.287,21.983,8.12c-0.439,5.53-0.969,10.97-1.561,16.272c-2.348,21.089-6.529,41.376-12.438,60.375   c-11.211,36.134-28.377,65.329-52.451,89.191c-10.681,10.575-22.832,20.015-36.938,28.695   c-28.392-17.544-50.193-39.255-66.466-66.162c-13.59-22.529-23.331-47.967-29.786-77.829c-3.348-15.529-5.757-32.18-7.271-50.573   c10.514-2.515,21.149-6.787,32.573-13.029c6.439-3.53,12.727-7.317,19.015-11.105c6.15-3.712,11.969-7.211,17.786-10.363   c9.712-5.242,19.696-10.06,30.271-15.151L256.358,131.829 M255.798,100.861c-3.288,0-6.561,0.743-9.818,2.318   c-13.12,6.363-26.331,12.545-39.148,19.469c-12.545,6.787-24.453,14.696-36.968,21.559c-10.999,6-22.604,10.681-35.482,11.727   c-9.484,0.757-14.06,6.151-13.817,15.151c1.333,23.498,3.969,46.481,8.878,69.178c6.605,30.604,17.029,59.814,33.391,86.919   c21.09,34.876,50.239,61.738,86.086,81.935c2.363,1.348,4.772,2.03,7.182,2.03c2.303,0,4.605-0.622,6.878-1.909   c19.09-10.742,36.665-23.408,52.148-38.725c29.06-28.802,48.118-63.254,60.027-101.631c6.696-21.514,11.09-43.497,13.575-65.829   c1.242-11.045,2.12-22.15,2.696-33.256c0.394-7.666-5.03-13.196-12.908-13.817c-9.212-0.728-18.12-2.742-26.211-7.03   c-13.787-7.333-27.483-14.817-40.876-22.832c-14.605-8.711-29.604-16.575-45.392-23.059   C262.601,101.649,259.191,100.861,255.798,100.861L255.798,100.861z" fill="#FDDB52"/></g><g/><g/><g/><g/><g/><g/></svg>