<?xml version="1.0" ?><!DOCTYPE svg  PUBLIC '-//W3C//DTD SVG 1.1//EN'  'http://www.w3.org/Graphics/SVG/1.1/DTD/svg11.dtd'><svg enable-background="new 0 0 512 512" height="512px" id="Calque_1" version="1.1" viewBox="0 0 512 512" width="512px" xml:space="preserve" xmlns="http://www.w3.org/2000/svg" xmlns:xlink="http://www.w3.org/1999/xlink"><g><path d="M512,256c0,141.379-114.613,256-256,256S0,397.379,0,256C0,114.606,114.613,0,256,0S512,114.606,512,256z" fill="#E2574C"/><g><path d="M320.038,402.621c0,4.712,3.817,8.53,8.53,8.53h42.651c4.712,0,8.53-3.818,8.53-8.53V221.349    c0-4.712-3.818-8.53-8.53-8.53h-42.651c-4.713,0-8.53,3.818-8.53,8.53V402.621z" fill="#FBAD3E"/><path d="M226.144,402.621c0,4.712,3.818,8.53,8.53,8.53h42.652c4.712,0,8.529-3.818,8.529-8.53V281.106    c0-4.712-3.817-8.53-8.529-8.53h-42.652c-4.712,0-8.53,3.818-8.53,8.53V402.621z" fill="#FFCA66"/><path d="M132.25,402.621c0,4.712,3.818,8.53,8.53,8.53h42.651c4.712,0,8.53-3.818,8.53-8.53v-61.772    c0-4.712-3.818-8.53-8.53-8.53H140.78c-4.712,0-8.53,3.818-8.53,8.53V402.621z" fill="#FDDB52"/><path d="M380.22,100.849c-21.742,12.379-51.758,24.985-75.228,28.379l30.273,12.212    C241.522,238,140.72,242.637,139.689,242.682c-4.515,0.152-8.061,4.091-7.909,8.788c0.137,4.621,3.772,8.272,8.167,8.272    c0.091,0,0.166,0,0.257-0.015c4.485-0.137,108.818-4.697,207.515-107.151l15.954,29.909    C363.659,157.772,371.478,125.03,380.22,100.849z" fill="#FFFFFF"/></g></g><g/><g/><g/><g/><g/><g/></svg>