<?xml version="1.0" ?><!DOCTYPE svg  PUBLIC '-//W3C//DTD SVG 1.1//EN'  'http://www.w3.org/Graphics/SVG/1.1/DTD/svg11.dtd'><svg enable-background="new 0 0 512 512" height="512px" id="Calque_1" version="1.1" viewBox="0 0 512 512" width="512px" xml:space="preserve" xmlns="http://www.w3.org/2000/svg" xmlns:xlink="http://www.w3.org/1999/xlink"><path d="M511.992,255.985c0,141.417-114.6,256.015-256,256.015C114.607,512,0.007,397.401,0.007,255.985  C0.007,114.6,114.607,0,255.993,0C397.393,0,511.992,114.6,511.992,255.985z" fill="#726658"/><g id="Blackboard"><path d="M246.542,411.143c-6.432,0-11.644-5.667-11.644-12.651V297.952c0-6.999,5.212-12.666,11.644-12.666   c6.424,0,11.635,5.667,11.635,12.666v100.539C258.178,405.476,252.966,411.143,246.542,411.143z" fill="#CF7E31"/><path d="M366.748,411.127c-3,0-6-1.257-8.273-3.772l-88.57-97.706c-4.484-4.984-4.453-12.984,0.121-17.893   c4.605-4.895,11.969-4.863,16.455,0.121l88.57,97.722c4.514,4.969,4.453,12.983-0.121,17.893   C372.656,409.9,369.717,411.127,366.748,411.127z" fill="#CF7E31"/><path d="M154.018,411.127c-2.955,0-5.909-1.227-8.167-3.636c-4.583-4.909-4.644-12.924-0.121-17.893l88.563-97.722   c4.515-5,11.886-5.03,16.461-0.121c4.575,4.908,4.636,12.908,0.121,17.893l-88.57,97.706   C160.017,409.87,157.017,411.127,154.018,411.127z" fill="#CF7E31"/><path d="M379.322,100.857H127.724c-5.485,0-9.969,4.833-9.969,10.772v188.141c0,5.984,4.484,10.832,9.969,10.832   h251.599c5.516,0,9.939-4.848,9.939-10.832V111.63C389.262,105.69,384.838,100.857,379.322,100.857z" fill="#E09157"/><g><path d="M394.262,299.771c0,5.984-4.545,10.832-10.182,10.832H142.617c-5.636,0-10.166-4.848-10.166-10.832V111.63    c0-5.939,4.53-10.772,10.166-10.772H384.08c5.637,0,10.182,4.833,10.182,10.772V299.771z" fill="#FFFFFF"/><path d="M379.504,116.523v178.383H147.215V116.523H379.504 M384.08,100.857H142.617    c-5.636,0-10.166,4.833-10.166,10.772v188.141c0,5.984,4.53,10.832,10.166,10.832H384.08c5.637,0,10.182-4.848,10.182-10.832    V111.63C394.262,105.69,389.717,100.857,384.08,100.857L384.08,100.857z" fill="#CF7E31"/></g><g><rect fill="#BCBEC0" height="6.999" width="182.444" x="167.274" y="145.537"/><rect fill="#BCBEC0" height="7" width="182.444" x="167.274" y="171.217"/><rect fill="#BCBEC0" height="7" width="182.444" x="167.274" y="196.943"/><rect fill="#BCBEC0" height="6.999" width="182.444" x="167.274" y="222.608"/><rect fill="#BCBEC0" height="6.969" width="182.444" x="167.274" y="248.304"/></g><rect fill="#B76C38" height="169.248" width="13.787" x="366.475" y="116.523"/><path d="M100.862,299.771c0,7.772,5.787,14.075,12.938,14.075h284.401c7.15,0,12.938-6.303,12.938-14.075l0,0   c0-7.772-5.787-14.06-12.938-14.06H113.8C106.649,285.711,100.862,291.998,100.862,299.771L100.862,299.771z" fill="#F4A671"/><path d="M411.139,299.771c0-7.772-5.939-14.06-13.271-14.06H137.738c-7.333,0-13.287,6.287-13.287,14.06   s5.954,14.075,13.287,14.075h260.129C405.199,313.846,411.139,307.543,411.139,299.771z" fill="#E09157"/></g><g/><g/><g/><g/><g/><g/></svg>